<svg width="24" height="24" xmlns="http://www.w3.org/2000/svg">

 <g>
  <title>background</title>
  <rect fill="none" id="canvas_background" height="402" width="582" y="-1" x="-1"/>
 </g>
 <g>
  <title>Layer 1</title>
  <path fill="#ffffff" id="svg_1" d="m19.158169,3.096l-14.246,0c-1.403,0 -2.544,1.141 -2.544,2.544l0,9.158c0,1.403 1.141,2.544 2.544,2.544l5.01,0l-0.363,2.544l-1.085,0c-0.281,0 -0.509,0.228 -0.509,0.509s0.228,0.509 0.509,0.509l1.526,0l4.07,0l1.526,0c0.281,0 0.509,-0.228 0.509,-0.509s-0.228,-0.509 -0.509,-0.509l-1.085,0l-0.363,-2.544l5.01,0c1.403,0 2.544,-1.141 2.544,-2.544l0,-9.158c0,-1.402 -1.142,-2.544 -2.544,-2.544zm-8.571,16.79l0.363,-2.544l2.17,0l0.363,2.544l-2.896,0zm10.097,-5.088c0,0.842 -0.685,1.526 -1.526,1.526l-5.596,0l-3.053,0l-5.597,0c-0.842,0 -1.526,-0.685 -1.526,-1.526l0,-0.509l17.298,0l0,0.509zm0,-1.526l-17.298,0l0,-7.632c0,-0.842 0.685,-1.526 1.526,-1.526l14.246,0c0.842,0 1.526,0.685 1.526,1.526l0,7.632z"/>
 </g>
</svg>